<svg xmlns="http://www.w3.org/2000/svg" width="146" height="135" fill="none"><path fill="#c9a84c" d="M130.127 50.993a6.5 6.5 0 0 1 1.088.139c.632.134 1.137.303 1.627.488.982.376 1.886.84 2.734 1.364 1.698 1.058 3.266 2.406 4.497 4.168 2.705 3.507 2.366 8.996.288 12.293-4.141 6.785-10.3 10.328-16.329 13.82-5.387 2.916-11.065 5.689-17.055 7.445-1.897 7.144-3.775 14.251-5.865 21.416a303 303 0 0 1-1.003 3.341c6.033 1.018 11.918 3.538 16.461 7.441 3.085 2.426 5.801 5.469 8.633 6.161 2.772.738 6.156-1.299 9.011-3.523 3.376-2.663 6.379-5.709 9.391-8.904a1.15 1.15 0 0 1 .773-.363 1.12 1.12 0 0 1 1.178 1.043c.019.295-.078.586-.267.812-2.871 3.409-5.73 6.668-9.192 9.699-2.941 2.424-6.593 5.506-11.61 4.688-4.768-1.129-7.35-4.357-10.381-6.424-4.551-3.537-9.85-5.503-15.453-6.095a107 107 0 0 1-1.09 3.065c-1.678 3.545-1.956 7.637-7.584 10.9-2.454.893-4.386-.036-5.685-.831-1.328-.857-2.33-1.913-3.157-3.091-1.58-2.3-2.737-5.515-1.472-8.861 3.484-6.636 9.802-6.021 14.282-6.23l.374.002c2.223-7.147 4.008-15.41 6.002-22.778a40.4 40.4 0 0 1-6.173.428c-4.514-.185-9.72-1.236-12.655-5.619a1.15 1.15 0 0 1-.132-.843 1.12 1.12 0 0 1 1.332-.84c.289.065.54.24.704.484 2.196 3.001 6.728 3.954 10.768 3.856 2.41-.096 4.797-.453 7.153-1.011.576-2.172 1.146-4.319 1.733-6.514 1.803-6.633 4.031-13.177 7.884-19.277 1.919-2.984 4.347-5.93 7.559-8.1a18.5 18.5 0 0 1 5.32-2.485 21 21 0 0 1 2.814-.575c.449-.063.884-.113 1.232-.16q.114-.017.203-.033c.523-.322 1.001-.405 1.186-.44.34-.06.704-.063.876-.056m-37.481 68.862c-3.723.203-7.6 1.349-8.078 3.209-.37.935.006 2.541.986 3.852.474.65 1.085 1.231 1.652 1.569.283.172.545.271.697.298l.029.003c1.822-2.273 3.357-5.361 4.714-8.931M131.4 55.841c-15.892 2.372-18.671 15.458-22.558 27.815l-.748 2.83c4.761-1.865 9.369-4.36 13.767-6.975 5.619-3.452 11.307-7.412 14.085-12.454 1.319-2.518 1.303-4.846-.191-6.843-.732-.998-1.796-1.901-2.985-2.6a11 11 0 0 0-1.83-.865 5.6 5.6 0 0 0-.812-.229.7.7 0 0 0-.163-.019c.008 0 .077.008.238-.019.095-.025.596-.065 1.197-.641M69.752.009c2.386.181 4.474 2.113 5.294 3.54 1.097 1.829 1.43 3.02 1.877 4.773.32 1.315.576 3.005.716 4.43.137 1.347.225 2.826.264 4.396.178 11.202-1.402 22.398-3.13 33.354-1.662 10.192-3.518 19.538-5.724 29.755-.698 3.285-5.154 3.213-5.736-.095C60.759 64.966 49.5 51.31 34.915 47.002c-4.343 7.181-8.51 14.494-12.65 21.762a825 825 0 0 0-7.07 12.895c-.37.78-1.217.877-1.824.265-3.499-3.558-6.653-7.504-9.205-11.89-3.11-5.543-6.347-13.069-2.205-20.01 4.45-6.513 12.059-7.778 18.526-8.598 4.364-.742 8.692-.641 12.866.16 6.16-10.845 12.906-21.401 20.915-31.31 1.805-2.124 3.816-4.311 6.06-6.228 2.42-1.857 4.726-4.211 9.424-4.04M30.85 46.066a33.9 33.9 0 0 0-9.957-.187c-6.063.477-12.659 1.812-15.766 6.214C2.017 56.52 3.96 63.24 6.764 68.609c1.942 3.726 4.4 7.256 7.15 10.507a636 636 0 0 1 5.734-11.74c3.652-7.138 7.326-14.273 11.202-21.31M69.097 5.543c-.97-.22-3.377 1.04-5.294 2.664-1.922 1.572-3.839 3.549-5.577 5.503-7.599 8.957-14.333 18.778-20.646 28.943 12.153 3.796 22.549 13.465 27.985 25.23a622 622 0 0 0 3.285-18.342c1.708-10.775 3.297-21.867 3.243-32.28a55 55 0 0 0-.189-3.966c-.105-1.253-.309-2.677-.538-3.689-.506-2.538-1.68-4.17-2.27-4.063"/></svg>